<?xml version="1.0" standalone="no"?>
<!DOCTYPE svg PUBLIC "-//W3C//DTD SVG 20010904//EN"
 "http://www.w3.org/TR/2001/REC-SVG-20010904/DTD/svg10.dtd">
<svg version="1.0" xmlns="http://www.w3.org/2000/svg"
 width="700.000000pt" height="700.000000pt" viewBox="0 0 700.000000 700.000000"
 preserveAspectRatio="xMidYMid meet">
<metadata>
Created by potrace 1.11, written by Peter Selinger 2001-2013
</metadata>
<g transform="translate(0.000000,700.000000) scale(0.100000,-0.100000)"
fill="#000000" stroke="none">
<path d="M3201 6004 c-66 -37 -112 -74 -188 -151 -68 -70 -184 -228 -198 -272
-5 -18 -14 -20 -94 -19 l-89 0 -55 82 c-103 151 -229 276 -313 311 -86 36
-174 23 -234 -34 -48 -45 -54 -82 -47 -274 5 -141 10 -171 50 -257 11 -25 20
-52 19 -61 -1 -33 -55 -145 -104 -217 -43 -63 -148 -196 -168 -212 -7 -5 -123
-203 -262 -445 -67 -118 -138 -245 -229 -410 -18 -33 -43 -80 -57 -105 -34
-62 -282 -558 -282 -564 0 -3 -11 -29 -24 -58 -81 -177 -108 -280 -107 -414 1
-56 3 -108 5 -115 3 -8 7 -37 10 -66 3 -28 10 -63 16 -78 5 -14 10 -36 10 -47
0 -26 83 -195 113 -228 65 -73 158 -129 253 -151 48 -11 267 -15 311 -5 17 4
24 -2 32 -26 30 -86 96 -130 195 -130 172 -1 255 55 436 297 94 125 167 203
260 276 95 75 81 65 175 128 148 101 434 323 564 440 41 36 80 71 86 76 6 6
57 55 114 110 100 98 102 99 97 65 -3 -19 -8 -64 -11 -100 -3 -36 -8 -74 -10
-85 -3 -11 -7 -31 -9 -45 -32 -196 -119 -420 -224 -580 -83 -128 -164 -220
-405 -462 -302 -302 -408 -436 -494 -621 -72 -154 -121 -376 -124 -567 -2
-107 18 -145 86 -166 18 -6 746 -9 1825 -9 1680 1 1797 2 1831 19 65 31 64 22
64 515 -1 386 -7 663 -20 791 -2 19 -6 71 -9 115 -6 74 -12 144 -21 220 -2 17
-6 57 -10 90 -4 33 -15 121 -26 195 -11 74 -22 151 -25 170 -4 29 -22 120 -69
350 -20 97 -88 343 -120 435 -73 208 -150 396 -201 490 -88 164 -112 205 -164
285 -389 586 -963 936 -1715 1044 -123 18 -115 14 -115 56 0 20 -5 62 -10 91
-6 30 -13 67 -15 82 -9 51 -55 153 -85 189 -57 69 -150 92 -219 52z"/>
</g>
</svg>
